# xmcd
#
# Track frame offsets:
#	150
#	12292
#	26227
#	37270
#	49732
#	62085
#	74010
#	86792
#	99967
#	113187
#	124400
#	135057
#	145497
#	153665
#	164130
#	174162
#	183237
#	193667
#	204420
#	216335
#	229485
#	244020
#	255427
#	266852
#	276617
#	288242
#	302775
#	316682
#
# Disc length: 4385
#
# Revision: 2
# Processed by: cddbd v1.5.1PL0 Copyright (c) Steve Scherf et al.
# Submitted via: audiograbber 1.81.02
# Normalized: r1:DSETVAR1,TSWAP
#
DISCID=b0111f1c
DTITLE=Various Artist - 2120 South Michigan Vol. 2
DYEAR=1900
DGENRE=Blues
TTITLE0=Clarence Samuels - Boogie Woogie Blues
TTITLE1=Roscoe Gordon - Booted
TTITLE2=Sugar Ray Crawford - Jock-A-Mo
TTITLE3=Larry Liggett - That Man Is Walking
TTITLE4=Bo Diddley - Bo Diddley
TTITLE5=Paul Gayten - If You Love Me, Tell Me So
TTITLE6=Bobby Charles - See You Later, Alligator
TTITLE7=The Flamingos - I'll Be Home
TTITLE8=Chuck Berry - Too Much Monkey Business
TTITLE9=Bo Diddley - Who Do You Love?
TTITLE10=Clarence "Frogman" Henry - Ain't Got No Home
TTITLE11=Johnnie and Joe - Over The Mountain, Across The Sea
TTITLE12=Eddie Bo - Walk That Way
TTITLE13=The Tune Weavers - Happy, Happy Birthday Baby
TTITLE14=DAle Hawkins - Susie-Q
TTITLE15=Clarence "Frogman" Henry - Lady With The Hat Box
TTITLE16=Paul Gayten - Nervous Boogie
TTITLE17=Lee Andrews and The Hearts - Teardrops
TTITLE18=G. L. Crockett - Look Out Mabel
TTITLE19=Fontaine, Eddie - Nothin' Shakin'
TTITLE20=Bo Diddley - Say Man
TTITLE21=The Students - I'm So Young
TTITLE22=Bo Diddley - I Love You So
TTITLE23=Johnny Fuller - You Got Me Whistlin'
TTITLE24=Dale Hawkins - La-Do-Dada
TTITLE25=Bo Diddley - What Do You Know About Love?
TTITLE26=The Sensations - Let Me In
TTITLE27=Chuck Berry - No Particular Place To Go
EXTD=
EXTT0=
EXTT1=
EXTT2=
EXTT3=
EXTT4=
EXTT5=
EXTT6=
EXTT7=
EXTT8=
EXTT9=
EXTT10=
EXTT11=
EXTT12=
EXTT13=
EXTT14=
EXTT15=
EXTT16=
EXTT17=
EXTT18=
EXTT19=
EXTT20=
EXTT21=
EXTT22=
EXTT23=
EXTT24=
EXTT25=
EXTT26=
EXTT27=
PLAYORDER=
